<?xml version="1.0" encoding="UTF-8"?>
<svg version="1.1" xmlns="http://www.w3.org/2000/svg" width="1005" height="248">
<path d="M0 0 C26.29378087 -0.72425983 56.57033354 5.00882025 76.63671875 23.16015625 C77.25804687 23.7015625 77.879375 24.24296875 78.51953125 24.80078125 C88.86273738 34.38279905 92.78824071 46.40896044 93.63671875 60.16015625 C90.4106833 61.77317398 86.88961837 61.28069224 83.34765625 61.2578125 C82.1200206 61.25569008 82.1200206 61.25569008 80.86758423 61.25352478 C78.2489255 61.24791915 75.63035171 61.23536573 73.01171875 61.22265625 C71.23828248 61.21764197 69.46484488 61.21307894 67.69140625 61.20898438 C63.33981093 61.19794789 58.98827925 61.1806795 54.63671875 61.16015625 C54.3281897 60.12955078 54.3281897 60.12955078 54.01342773 59.078125 C53.74344971 58.17707031 53.47347168 57.27601562 53.1953125 56.34765625 C52.92775146 55.45433594 52.66019043 54.56101563 52.38452148 53.640625 C51.25761439 49.80227881 51.25761439 49.80227881 49.63671875 46.16015625 C48.31756055 45.46586246 46.9820797 44.80220464 45.63671875 44.16015625 C44.5080014 43.37379866 43.38316937 42.58184289 42.26171875 41.78515625 C22.62146891 29.6132281 -8.54428036 31.24708785 -30.23828125 35.91015625 C-38.1625069 37.77927386 -45.79880634 40.01226885 -50.36328125 47.16015625 C-51.70363348 53.09600184 -51.67567665 55.83059699 -48.36328125 61.16015625 C-34.79198312 71.64706844 -13.52532991 70.77266067 2.82421875 71.66015625 C14.41393886 72.29518231 25.92573889 73.05515516 37.43359375 74.61328125 C38.31037277 74.73159302 39.18715179 74.84990479 40.09049988 74.97180176 C58.03626773 77.53822557 76.9285762 82.09681483 88.76171875 96.91015625 C97.21515253 108.64733859 98.18967053 122.1612684 96.2109375 136.17578125 C93.01154687 148.34524254 84.75056199 157.7108914 74.2890625 164.25390625 C56.00552785 174.82131896 34.43531721 179.25053642 13.45703125 179.36328125 C12.17866898 179.37183136 12.17866898 179.37183136 10.8744812 179.3805542 C9.07779149 179.3899411 7.28108505 179.39651283 5.484375 179.40039062 C2.80305891 179.41000797 0.12254035 179.44105541 -2.55859375 179.47265625 C-31.34034795 179.64940216 -60.8821941 173.74331754 -82.3125 153.30078125 C-91.48129945 143.67453628 -95.36328125 132.19351473 -95.36328125 119.16015625 C-82.16328125 119.16015625 -68.96328125 119.16015625 -55.36328125 119.16015625 C-54.37328125 122.46015625 -53.38328125 125.76015625 -52.36328125 129.16015625 C-47.76419469 137.32103539 -39.85010873 140.52301297 -31.234375 143.09375 C-21.16783135 145.726926 -11.49487653 146.34657751 -1.1328125 146.34545898 C1.1030648 146.34762367 3.33842986 146.36575549 5.57421875 146.38476562 C21.02143387 146.44541287 39.37722925 146.04151243 52.63671875 137.16015625 C56.93926718 132.52664255 57.97041451 129.58407407 57.83203125 123.40625 C57.54091288 120.05838879 56.97009895 118.6307941 54.63671875 116.16015625 C39.82583298 106.16654848 19.72918783 107.19260201 2.63671875 106.16015625 C-64.96089871 102.03031351 -64.96089871 102.03031351 -81.36328125 84.16015625 C-90.39191482 73.3216827 -91.52430585 60.75381923 -90.36328125 47.16015625 C-88.48390065 35.28873548 -81.43066996 25.58520005 -72.03808594 18.33740234 C-50.78560608 3.39870586 -25.07339886 1.19397137 0 0 Z " fill="#FEFEFE" transform="translate(111.36328125,35.83984375)"/>
<path d="M0 0 C11.29537936 8.60136647 17.73668873 19.91995185 20 34 C20.08765897 36.70752863 20.12652221 39.38813701 20.11352539 42.0949707 C20.11367142 42.89549362 20.11381744 43.69601654 20.1139679 44.52079773 C20.11327355 47.1558202 20.10550356 49.79077119 20.09765625 52.42578125 C20.09579037 54.25709494 20.09436727 56.08840914 20.09336853 57.91972351 C20.08955672 62.73163235 20.07973785 67.54351084 20.06866455 72.35540771 C20.05661971 78.13323591 20.05204183 83.91107427 20.04621124 89.68891144 C20.03652538 98.45929538 20.01735946 107.22961277 20 116 C7.79 116 -4.42 116 -17 116 C-15.35 104.12 -13.7 92.24 -12 80 C-14.64 85.28 -17.28 90.56 -20 96 C-30.63457914 109.52110777 -43.66092285 117.0313215 -60.7734375 119.65625 C-78.78239969 121.57488035 -100.1185504 123.27251039 -115.5 111.6875 C-123.10871706 103.50812916 -125.49905737 95.28064066 -125.3203125 84.16015625 C-124.87062089 79.72356467 -123.49747533 76.64142382 -121 73 C-120.195625 71.7315625 -120.195625 71.7315625 -119.375 70.4375 C-100.59842683 51.16680649 -68.70277943 48.28278014 -43.4375 45.25 C-42.39215088 45.12222168 -41.34680176 44.99444336 -40.26977539 44.86279297 C-32.82466186 44.02528395 -25.48824478 43.86325616 -18 44 C-19.11109435 37.01381491 -20.1573701 31.28190279 -25.8203125 26.4453125 C-39.36740455 17.46247369 -61.85591344 21.5691146 -76.81298828 24.53808594 C-87.79483693 26.85753868 -98.40793208 30.3340928 -109 34 C-110 33 -110 33 -110.11352539 30.13256836 C-110.10828857 28.88096924 -110.10305176 27.62937012 -110.09765625 26.33984375 C-110.0962413 25.67537735 -110.09482635 25.01091095 -110.09336853 24.3263092 C-110.08775518 22.19666101 -110.07520054 20.06711661 -110.0625 17.9375 C-110.05748671 16.49674631 -110.05292351 15.05599097 -110.04882812 13.61523438 C-110.03778145 10.07678898 -110.02050792 6.53840461 -110 3 C-94.72406493 -2.76681886 -79.02701629 -6.01700934 -63 -9 C-61.52394287 -9.277229 -61.52394287 -9.277229 -60.01806641 -9.56005859 C-40.22516468 -12.44525589 -16.8656284 -11.71224194 0 0 Z M-84 76 C-85.55024464 79.10048928 -85.28992015 81.57894218 -85 85 C-82.65728376 89.29497977 -79.89965542 90.76241972 -75.35888672 92.38037109 C-71.04029068 93.51477357 -66.75425535 93.48555014 -62.3125 93.4375 C-61.34223877 93.43065186 -60.37197754 93.42380371 -59.37231445 93.41674805 C-46.64737205 93.1333583 -34.79469885 89.46507233 -25.1875 80.8125 C-20.50664595 75.84861756 -18 69.79279615 -18 63 C-53.25159135 62.35416746 -53.25159135 62.35416746 -84 76 Z " fill="#FEFEFE" transform="translate(739,95)"/>
<path d="M0 0 C0.69522766 -0.00045319 1.39045532 -0.00090637 2.10675049 -0.00137329 C13.53034772 0.02011847 24.78451232 0.84114216 36.125 2.1875 C37.18853699 2.31152191 37.18853699 2.31152191 38.27355957 2.43804932 C46.7418511 3.44852935 54.42315836 5.10404319 62.75 7.375 C62.75 17.275 62.75 27.175 62.75 37.375 C51.61138614 36.26113861 51.61138614 36.26113861 46.125 35.4375 C6.66785171 28.62673471 6.66785171 28.62673471 -31.25 37.375 C-32.56534788 38.48149557 -32.56534788 38.48149557 -32.5625 41.25 C-32.57723362 44.36716537 -32.57723362 44.36716537 -30.70556641 45.97045898 C-27.47908011 47.81595269 -24.26999722 48.3970306 -20.6484375 48.97265625 C-19.90185883 49.09745865 -19.15528015 49.22226105 -18.38607788 49.35084534 C-10.70343653 50.57104014 -2.99454436 51.14497559 4.76199341 51.6539917 C50.9118382 54.74968068 50.9118382 54.74968068 65.75 69.375 C71.44838892 76.20468672 73.25590644 84.28218831 72.99609375 93.0546875 C71.95504201 102.87031819 67.64617016 109.93880926 60.5 116.5625 C39.75898066 133.10167491 8.14919293 132.42761066 -16.8125 130.1875 C-17.53055817 130.12386261 -18.24861633 130.06022522 -18.98843384 129.99465942 C-34.647872 128.57612434 -50.29243596 126.36085468 -65.25 121.375 C-65.25 110.815 -65.25 100.255 -65.25 89.375 C-59.32787366 90.99012537 -53.48327678 92.59527035 -47.625 94.375 C-24.77232321 100.87232967 7.05588709 105.32656676 29.75 96.375 C33.60952074 93.2751193 33.60952074 93.2751193 35.0625 88.8125 C32.98097212 84.94680536 29.7338604 83.7277775 25.75 82.375 C14.77853676 79.79798964 3.32246312 79.52374001 -7.88867188 78.84863281 C-26.20471611 77.72622105 -49.48885493 76.07484821 -63.25 62.375 C-70.65375622 52.92994556 -71.19424536 44.03872992 -70.25 32.375 C-68.47207272 24.05158249 -62.30800425 17.42309369 -55.66015625 12.4296875 C-39.17879186 1.9847076 -19.08310279 -0.04903102 0 0 Z " fill="#FEFEFE" transform="translate(917.25,84.625)"/>
<path d="M0 0 C1.13671143 0.00563965 2.27342285 0.0112793 3.44458008 0.01708984 C25.07022082 0.32763079 44.81038633 6.37998735 60.9375 21.3125 C73.72180253 34.66377446 77.75265653 50.4788081 77.60205078 68.64282227 C77.16297606 85.39276585 71.15454667 98.53131651 59.25 110.3125 C58.36248047 111.25029297 58.36248047 111.25029297 57.45703125 112.20703125 C40.46316979 128.82575228 15.47553385 130.72285949 -6.87890625 130.53125 C-14.20877181 130.37330003 -20.7304161 129.51919846 -27.75 127.3125 C-28.76320313 127.0340625 -29.77640625 126.755625 -30.8203125 126.46875 C-47.3932329 121.55197566 -60.78609916 111.06600272 -69.75 96.3125 C-78.13172524 80.03958305 -79.19266256 61.40236984 -73.99609375 43.9609375 C-68.53894467 27.98295241 -56.76654305 15.7493 -41.75 8.3125 C-28.25476297 2.30585828 -14.75956008 -0.07730409 0 0 Z M-34.0625 43.5625 C-41.06336682 52.55247105 -41.86547225 62.31394359 -40.75 73.3125 C-39.83592409 76.94082171 -38.54649821 80.03985815 -36.75 83.3125 C-36.21375 84.364375 -35.6775 85.41625 -35.125 86.5 C-27.24771535 95.8283634 -16.20537881 99.92656827 -4.3125 101.1875 C8.81825974 101.81426657 21.79149128 99.07304091 32.1875 90.6875 C38.85613428 84.30933255 42.22257398 75.47261177 42.5625 66.3125 C42.40937585 57.12505087 39.29833157 48.20401424 33.28515625 41.24609375 C23.42202452 31.87517205 11.10950077 29.80283206 -2.02514648 29.890625 C-14.42390403 30.28885239 -25.45943141 34.46721605 -34.0625 43.5625 Z " fill="#FEFEFE" transform="translate(301.75,84.6875)"/>
<path d="M0 0 C0.34057617 3.07275391 0.34057617 3.07275391 0.29296875 6.9765625 C0.28872391 7.66181 0.28447906 8.3470575 0.28010559 9.05307007 C0.26329753 11.24411129 0.22564405 13.43423632 0.1875 15.625 C0.17245579 17.10936173 0.15876693 18.59373785 0.14648438 20.078125 C0.1133879 23.71904833 0.06159207 27.35943478 0 31 C-4.46971893 30.20420576 -8.22703886 28.60730696 -12.3125 26.6875 C-31.10256246 18.16124722 -56.22979729 13.73171089 -76.38671875 19.88671875 C-86.48867084 24.19024094 -92.94363414 29.75288506 -97.18359375 39.87890625 C-100.58561236 48.7176436 -99.64791396 58.38763171 -96 67 C-92.79816005 73.09319845 -89.18740691 77.86287614 -83 81 C-82.10023438 81.46535156 -81.20046875 81.93070312 -80.2734375 82.41015625 C-59.95109212 90.95315624 -32.69524004 87.33084055 -12.8203125 79.2734375 C-10.41097416 78.18556451 -8.14925824 77.0292172 -5.875 75.6875 C-3 74 -3 74 0 74 C0 84.23 0 94.46 0 105 C-29.31797316 117.56484564 -62.40042577 123.52519218 -93.234375 112.15625 C-112.47033951 104.11409535 -125.43222841 92.47887052 -134.140625 73.49609375 C-139.5645146 57.74215988 -138.8139696 39.31713316 -131.71484375 24.27734375 C-122.23577137 7.19389018 -106.54753093 -3.90937463 -88.1640625 -9.546875 C-61.09720554 -17.04901853 -24.18037615 -16.12025076 0 0 Z " fill="#FEFEFE" transform="translate(530,98)"/>
<path d="M0 0 C12.54 0 25.08 0 38 0 C38 56.76 38 113.52 38 172 C25.46 172 12.92 172 0 172 C0 115.24 0 58.48 0 0 Z " fill="#FEFEFE" transform="translate(788,40)"/>
<path d="M0 0 C18.81 0.495 18.81 0.495 38 1 C38 41.59 38 82.18 38 124 C25.46 123.67 12.92 123.34 0 123 C0 82.41 0 41.82 0 0 Z " fill="#FEFEFE" transform="translate(556,88)"/>
<path d="M0 0 C4.09325986 3.27460789 6.76151538 6.88285038 8 12 C8.72613922 18.65461834 8.50808302 25.14430248 5 31 C-0.37946017 36.90428555 -7.5566998 39.01380106 -15.4375 39.4375 C-21.49325458 39.19010683 -27.99641697 37.46361305 -32.73828125 33.57421875 C-37.68322001 27.92911166 -38.46494892 22.31269301 -38.3046875 15.07421875 C-37.76050266 9.58353324 -36.38114228 5.03470559 -32.09375 1.37109375 C-22.73279008 -4.75893784 -9.89672239 -5.2182718 0 0 Z " fill="#FEFEFE" transform="translate(590,32)"/>
<path d="M0 0 C0 0.33 0 0.66 0 1 C-7.66204356 1.97295791 -15.41717766 2.95685738 -23 1 C-23 0.67 -23 0.34 -23 0 C-15.16992004 -0.79773542 -7.80363479 -1.14500285 0 0 Z " fill="#F6F6F6" transform="translate(483,214)"/>
</svg>
